<svg width="118" height="32" viewBox="0 0 118 32" fill="none" xmlns="http://www.w3.org/2000/svg">
<path d="M47.7046 25V7.04879H53.5598C55.4554 7.04879 57.1019 7.43432 58.4994 8.20538C59.913 8.96037 61.0054 10.0125 61.7764 11.3619C62.5475 12.6952 62.933 14.2453 62.933 16.0123C62.933 17.7633 62.5475 19.3215 61.7764 20.6869C61.0054 22.0362 59.913 23.0964 58.4994 23.8675C57.1019 24.6225 55.4554 25 53.5598 25H47.7046ZM50.9816 22.1085H53.6321C54.853 22.1085 55.9051 21.8595 56.7886 21.3616C57.6882 20.8475 58.387 20.1407 58.885 19.2412C59.3829 18.3255 59.6319 17.2493 59.6319 16.0123C59.6319 14.7594 59.3829 13.6831 58.885 12.7835C58.387 11.884 57.6882 11.1852 56.7886 10.6872C55.9051 10.1892 54.853 9.94026 53.6321 9.94026H50.9816V22.1085ZM64.5531 25V11.892H67.5168V14.8076L67.2759 14.3738C67.5811 13.394 68.055 12.7113 68.6975 12.3257C69.3561 11.9402 70.1432 11.7474 71.0589 11.7474H71.8299V14.5425H70.6974C69.7979 14.5425 69.075 14.8236 68.5288 15.3859C67.9827 15.932 67.7096 16.7031 67.7096 17.699V25H64.5531ZM72.8425 25V11.892H75.999V25H72.8425ZM72.8425 10.4222V7.04879H75.999V10.4222H72.8425ZM82.1423 25L76.9858 11.892H80.4315L84.1663 22.2049H82.8892L86.6482 11.892H90.0938L84.9374 25H82.1423ZM97.097 25.2891C95.7476 25.2891 94.5669 24.9839 93.5549 24.3735C92.5429 23.7631 91.7558 22.9358 91.1936 21.8917C90.6313 20.8475 90.3502 19.6909 90.3502 18.4219C90.3502 17.1047 90.6313 15.9401 91.1936 14.928C91.7719 13.9 92.5509 13.0887 93.5308 12.4944C94.5268 11.9 95.6352 11.6029 96.856 11.6029C97.8841 11.6029 98.7837 11.7715 99.5547 12.1089C100.342 12.4462 101.008 12.912 101.555 13.5064C102.101 14.1008 102.518 14.7835 102.808 15.5545C103.097 16.3095 103.241 17.1288 103.241 18.0123C103.241 18.2372 103.225 18.4701 103.193 18.7111C103.177 18.952 103.137 19.1608 103.073 19.3375H92.9525V16.928H101.29L99.7957 18.0605C99.9403 17.3215 99.9001 16.6629 99.6752 16.0846C99.4664 15.5063 99.113 15.0485 98.615 14.7112C98.1331 14.3738 97.5468 14.2052 96.856 14.2052C96.1974 14.2052 95.6111 14.3738 95.097 14.7112C94.583 15.0325 94.1894 15.5144 93.9164 16.1569C93.6593 16.7834 93.563 17.5464 93.6272 18.446C93.563 19.2492 93.6674 19.964 93.9405 20.5905C94.2296 21.2009 94.6473 21.6748 95.1934 22.0121C95.7557 22.3495 96.3982 22.5182 97.1211 22.5182C97.8439 22.5182 98.4544 22.3655 98.9523 22.0603C99.4664 21.7551 99.868 21.3455 100.157 20.8315L102.711 22.0844C102.454 22.7109 102.053 23.2651 101.506 23.747C100.96 24.2289 100.31 24.6064 99.5547 24.8795C98.8158 25.1526 97.9965 25.2891 97.097 25.2891ZM104.911 25V11.892H107.875V14.4702L107.634 14.0124C107.939 13.2253 108.437 12.6309 109.128 12.2293C109.835 11.8117 110.654 11.6029 111.586 11.6029C112.55 11.6029 113.401 11.8117 114.14 12.2293C114.895 12.647 115.481 13.2333 115.899 13.9883C116.317 14.7272 116.525 15.5867 116.525 16.5665V25H113.369V17.3135C113.369 16.7352 113.256 16.2372 113.031 15.8196C112.807 15.4019 112.493 15.0807 112.092 14.8558C111.706 14.6148 111.248 14.4943 110.718 14.4943C110.204 14.4943 109.746 14.6148 109.345 14.8558C108.943 15.0807 108.63 15.4019 108.405 15.8196C108.18 16.2372 108.068 16.7352 108.068 17.3135V25H104.911Z" fill="#1A1A1A"/>
<path d="M11.9865 4.45312H27.3023L16.0421 21.1429H0.726379L11.9865 4.45312Z" fill="#1A1A1A"/>
<path d="M12.6572 22.6898L8.29584 29.1541H24.3381L35.5982 12.4644H23.7581L16.8592 22.6898H12.6572Z" fill="#1A1A1A"/>
</svg>
