<svg width="132" height="20" viewBox="0 0 132 20" fill="none" xmlns="http://www.w3.org/2000/svg">
<g clip-path="url(#clip0_540_71)">
<path d="M9.99911 15.216L4.12161 18.506L5.43411 11.8993L0.488281 7.32601L7.17745 6.53268L9.99911 0.416016L12.8208 6.53268L19.5099 7.32601L14.5641 11.8993L15.8766 18.506L9.99911 15.216Z" fill="#E87929" style="mix-blend-mode:darken"/>
</g>
<g clip-path="url(#clip1_540_71)">
<path d="M37.9991 15.216L32.1216 18.506L33.4341 11.8993L28.4883 7.32601L35.1774 6.53268L37.9991 0.416016L40.8208 6.53268L47.5099 7.32601L42.5641 11.8993L43.8766 18.506L37.9991 15.216Z" fill="#E87929" style="mix-blend-mode:darken"/>
</g>
<g clip-path="url(#clip2_540_71)">
<path d="M65.9991 15.216L60.1216 18.506L61.4341 11.8993L56.4883 7.32601L63.1774 6.53268L65.9991 0.416016L68.8208 6.53268L75.5099 7.32601L70.5641 11.8993L71.8766 18.506L65.9991 15.216Z" fill="#E87929" style="mix-blend-mode:darken"/>
</g>
<g clip-path="url(#clip3_540_71)">
<path d="M93.9991 15.216L88.1216 18.506L89.4341 11.8993L84.4883 7.32601L91.1774 6.53268L93.9991 0.416016L96.8208 6.53268L103.51 7.32601L98.5641 11.8993L99.8766 18.506L93.9991 15.216Z" fill="#E87929" style="mix-blend-mode:darken"/>
</g>
<g clip-path="url(#clip4_540_71)">
<path d="M121.999 15.216L116.122 18.506L117.434 11.8993L112.488 7.32601L119.177 6.53268L121.999 0.416016L124.821 6.53268L131.51 7.32601L126.564 11.8993L127.877 18.506L121.999 15.216Z" fill="#E87929" style="mix-blend-mode:darken"/>
</g>
<defs>
<clipPath id="clip0_540_71">
<rect width="20" height="20" fill="white"/>
</clipPath>
<clipPath id="clip1_540_71">
<rect width="20" height="20" fill="white" transform="translate(28)"/>
</clipPath>
<clipPath id="clip2_540_71">
<rect width="20" height="20" fill="white" transform="translate(56)"/>
</clipPath>
<clipPath id="clip3_540_71">
<rect width="20" height="20" fill="white" transform="translate(84)"/>
</clipPath>
<clipPath id="clip4_540_71">
<rect width="20" height="20" fill="white" transform="translate(112)"/>
</clipPath>
</defs>
</svg>
