<svg width="226" height="56" viewBox="0 0 226 56" fill="none" xmlns="http://www.w3.org/2000/svg">
<g clip-path="url(#clip0_540_43)">
<path d="M53.4835 20.6514L74.2773 20.6514V24.5224H66.0899V46.3439H61.6023V24.5224H53.4492L53.4835 20.6514ZM73.3866 27.7425H77.2234V31.3395H77.2919C77.4289 30.8256 77.6687 30.346 78.0113 29.8664C78.3538 29.3868 78.7649 28.9415 79.2788 28.5647C79.7584 28.1536 80.3065 27.8453 80.9231 27.6055C81.5054 27.3657 82.1221 27.2286 82.7387 27.2286C83.2183 27.2286 83.5609 27.2629 83.7321 27.2629C83.9034 27.2972 84.109 27.3314 84.2802 27.3314V31.2709C84.0062 31.2024 83.6979 31.1682 83.3896 31.1339C83.0813 31.0997 82.8072 31.0654 82.4989 31.0654C81.8138 31.0654 81.1629 31.2024 80.5463 31.4765C79.9296 31.7505 79.4158 32.1616 78.9362 32.6755C78.4909 33.2236 78.114 33.8745 77.84 34.6624C77.5659 35.4503 77.4289 36.3752 77.4289 37.4029V46.2411H73.3181L73.3866 27.7425ZM103.121 46.3439H99.0791V43.7404H99.0106C98.4968 44.6996 97.7431 45.419 96.7497 46.0013C95.7562 46.5837 94.7285 46.8577 93.7008 46.8577C91.2686 46.8577 89.4873 46.2754 88.3911 45.0421C87.2948 43.8431 86.7467 41.9933 86.7467 39.5611V27.7425H90.8575V39.15C90.8575 40.7943 91.1658 41.959 91.8167 42.6099C92.4333 43.295 93.324 43.6376 94.4545 43.6376C95.3109 43.6376 96.0303 43.5006 96.6127 43.2265C97.195 42.9525 97.6746 42.6099 98.0172 42.1646C98.394 41.7192 98.6338 41.1711 98.8051 40.5545C98.9764 39.9379 99.0449 39.2527 99.0449 38.5334V27.7425H103.156V46.3439H103.121ZM110.11 40.3832C110.247 41.5822 110.692 42.4044 111.48 42.9182C112.268 43.3978 113.227 43.6376 114.323 43.6376C114.7 43.6376 115.146 43.6034 115.625 43.5348C116.105 43.4663 116.584 43.3636 116.995 43.1923C117.441 43.021 117.783 42.7812 118.057 42.4386C118.331 42.0961 118.468 41.685 118.434 41.1711C118.4 40.6573 118.229 40.2119 117.852 39.8694C117.475 39.5268 117.03 39.287 116.482 39.0472C115.933 38.8417 115.283 38.6704 114.563 38.5334C113.844 38.3963 113.124 38.225 112.371 38.0538C111.617 37.8825 110.863 37.6769 110.144 37.4372C109.425 37.1974 108.808 36.889 108.226 36.4437C107.678 36.0326 107.198 35.5188 106.89 34.8679C106.547 34.217 106.376 33.4634 106.376 32.5042C106.376 31.4765 106.616 30.6543 107.129 29.9692C107.609 29.284 108.26 28.7359 109.014 28.3249C109.767 27.9138 110.624 27.6055 111.549 27.4342C112.474 27.2629 113.364 27.1944 114.186 27.1944C115.146 27.1944 116.07 27.2972 116.927 27.5027C117.783 27.7082 118.605 28.0166 119.291 28.4961C120.01 28.9415 120.592 29.5581 121.038 30.2775C121.517 30.9969 121.791 31.8876 121.928 32.9153H117.646C117.441 31.9218 116.995 31.2709 116.31 30.9284C115.591 30.5858 114.803 30.4145 113.878 30.4145C113.604 30.4145 113.227 30.4488 112.85 30.483C112.439 30.5515 112.097 30.6201 111.72 30.7571C111.377 30.8941 111.069 31.0997 110.829 31.3395C110.589 31.5792 110.452 31.9218 110.452 32.3329C110.452 32.8467 110.624 33.2236 110.966 33.5319C111.309 33.8402 111.754 34.08 112.336 34.3198C112.885 34.5253 113.535 34.6966 114.255 34.8336C114.974 34.9707 115.728 35.1419 116.482 35.3132C117.235 35.4845 117.955 35.6901 118.674 35.9298C119.393 36.1696 120.044 36.478 120.592 36.9233C121.14 37.3344 121.62 37.8482 121.963 38.4649C122.305 39.0815 122.476 39.8694 122.476 40.76C122.476 41.8563 122.237 42.7812 121.723 43.5691C121.209 44.3227 120.558 44.9736 119.77 45.4532C118.982 45.9328 118.057 46.2754 117.098 46.5152C116.105 46.7207 115.146 46.8577 114.186 46.8577C113.022 46.8577 111.925 46.7207 110.932 46.4467C109.939 46.1726 109.048 45.7615 108.328 45.2477C107.609 44.6996 107.027 44.0487 106.616 43.2265C106.205 42.4386 105.965 41.4794 105.93 40.349H110.076V40.3832H110.11ZM123.641 27.7425H126.759V22.1244H130.869V27.7082H134.569V30.7571H130.869V40.6915C130.869 41.1369 130.904 41.4794 130.938 41.822C130.972 42.1303 131.075 42.4044 131.178 42.6099C131.315 42.8154 131.52 42.9867 131.76 43.0895C132.034 43.1923 132.377 43.2608 132.856 43.2608C133.13 43.2608 133.439 43.2608 133.713 43.2265C133.987 43.1923 134.295 43.158 134.569 43.0895V46.2754C134.124 46.3439 133.678 46.3781 133.233 46.4124C132.788 46.4809 132.377 46.4809 131.897 46.4809C130.801 46.4809 129.944 46.3781 129.294 46.1726C128.643 45.9671 128.129 45.6588 127.752 45.2819C127.375 44.8709 127.135 44.3913 126.998 43.8089C126.861 43.2265 126.793 42.5071 126.759 41.7535V30.7913H123.641V27.674V27.7425ZM137.447 27.7425H141.318V30.2775H141.386C141.969 29.1813 142.756 28.4276 143.784 27.948C144.812 27.4684 145.908 27.2286 147.141 27.2286C148.614 27.2286 149.882 27.4685 150.978 28.0166C152.074 28.5304 152.965 29.2155 153.684 30.1405C154.404 31.0311 154.952 32.0931 155.294 33.2921C155.637 34.4911 155.842 35.7928 155.842 37.1288C155.842 38.3963 155.671 39.5953 155.363 40.76C155.02 41.9248 154.541 42.9867 153.89 43.8774C153.239 44.7681 152.417 45.4875 151.389 46.0356C150.361 46.5837 149.197 46.8577 147.826 46.8577C147.244 46.8577 146.627 46.7892 146.045 46.6865C145.463 46.5837 144.88 46.4124 144.332 46.1726C143.784 45.9328 143.27 45.6245 142.825 45.2477C142.345 44.8708 141.969 44.4255 141.66 43.9459H141.592V53.2295H137.481V27.7425H137.447ZM151.8 37.0603C151.8 36.2382 151.697 35.416 151.458 34.6281C151.252 33.8402 150.91 33.1551 150.464 32.5384C150.019 31.9218 149.471 31.4422 148.854 31.0654C148.203 30.6886 147.45 30.5173 146.627 30.5173C144.915 30.5173 143.613 31.0997 142.722 32.2986C141.866 33.4976 141.42 35.1077 141.42 37.0946C141.42 38.0538 141.523 38.9102 141.763 39.6981C142.003 40.486 142.311 41.1711 142.791 41.7535C143.236 42.3358 143.784 42.7812 144.435 43.1238C145.086 43.4663 145.805 43.6376 146.662 43.6376C147.621 43.6376 148.375 43.4321 149.025 43.0552C149.676 42.6784 150.19 42.1646 150.635 41.5822C151.047 40.9656 151.355 40.2805 151.526 39.4926C151.697 38.6704 151.8 37.8825 151.8 37.0603ZM159.028 20.6514H163.139V24.5224H159.028V20.6514ZM159.028 27.7425H163.139V46.3439H159.028V27.7425ZM166.805 20.6514L170.915 20.6514V46.3439L166.805 46.3439V20.6514ZM183.453 46.8577C181.98 46.8577 180.644 46.6179 179.48 46.1041C178.315 45.5902 177.356 44.9394 176.534 44.0829C175.746 43.2265 175.129 42.1646 174.718 40.9656C174.307 39.7666 174.067 38.4306 174.067 37.0261C174.067 35.6215 174.273 34.3198 174.718 33.1208C175.129 31.9218 175.746 30.8941 176.534 30.0034C177.321 29.147 178.315 28.4619 179.48 27.9823C180.644 27.5027 181.98 27.2286 183.453 27.2286C184.926 27.2286 186.262 27.4684 187.427 27.9823C188.592 28.4619 189.551 29.147 190.373 30.0034C191.161 30.8599 191.778 31.9218 192.189 33.1208C192.6 34.3198 192.84 35.6215 192.84 37.0261C192.84 38.4648 192.634 39.7666 192.189 40.9656C191.743 42.1646 191.161 43.1923 190.373 44.0829C189.585 44.9394 188.592 45.6245 187.427 46.1041C186.262 46.5837 184.961 46.8577 183.453 46.8577ZM183.453 43.6034C184.344 43.6034 185.166 43.3978 185.817 43.021C186.502 42.6442 187.016 42.1303 187.461 41.5137C187.907 40.8971 188.215 40.1777 188.421 39.424C188.626 38.6361 188.729 37.8482 188.729 37.0261C188.729 36.2382 188.626 35.4503 188.421 34.6624C188.215 33.8745 187.907 33.1893 187.461 32.5727C187.016 31.9561 186.468 31.4765 185.817 31.0997C185.132 30.7228 184.344 30.5173 183.453 30.5173C182.563 30.5173 181.741 30.7228 181.09 31.0997C180.405 31.4765 179.891 31.9903 179.445 32.5727C179 33.1893 178.692 33.8745 178.486 34.6624C178.281 35.4503 178.178 36.2382 178.178 37.0261C178.178 37.8482 178.281 38.6361 178.486 39.424C178.692 40.2119 179 40.8971 179.445 41.5137C179.891 42.1303 180.439 42.6442 181.09 43.021C181.775 43.4321 182.563 43.6034 183.453 43.6034ZM194.073 27.7425H197.19V22.1244H201.301V27.7082H205.001V30.7571L201.301 30.7571V40.6915C201.301 41.1369 201.335 41.4794 201.37 41.822C201.404 42.1303 201.507 42.4044 201.609 42.6099C201.746 42.8154 201.952 42.9867 202.192 43.0895C202.466 43.1923 202.808 43.2608 203.288 43.2608C203.562 43.2608 203.87 43.2608 204.144 43.2265C204.418 43.1923 204.727 43.158 205.001 43.0895V46.2754C204.556 46.3439 204.11 46.3781 203.665 46.4124C203.219 46.4809 202.808 46.4809 202.329 46.4809C201.233 46.4809 200.376 46.3781 199.725 46.1726C199.074 45.9671 198.561 45.6588 198.184 45.2819C197.807 44.8709 197.567 44.3913 197.43 43.8089C197.293 43.2265 197.225 42.5071 197.19 41.7535V30.7913H194.073V27.674V27.7425Z" fill="#1A1A1A"/>
<path d="M48.6878 20.6515L29.8809 20.6515L24.0915 2.76953L18.2679 20.6515L-0.539062 20.6173L14.6709 31.6822L8.84727 49.5642L24.0572 38.4993L39.2672 49.5642L33.4778 31.6822L48.6878 20.6515Z" fill="#00B67A"/>
<path d="M34.7818 35.7249L33.4801 31.6826L24.0938 38.4997L34.7818 35.7249Z" fill="#005128"/>
</g>
<defs>
<clipPath id="clip0_540_43">
<rect width="226" height="56" fill="white"/>
</clipPath>
</defs>
</svg>
